<?xml version="1.0"?>
<svg width="24" height="24" xmlns="http://www.w3.org/2000/svg" xmlns:svg="http://www.w3.org/2000/svg">
 <g class="layer">
  <title>Layer 1</title>
  <g id="svg_4">
   <path d="m0.41,8c1.52,0 5.39,-0.41 5.6,0.46c0.21,0.87 0.4,1.7 0.63,2.56c0.24,0.86 0.46,1.72 0.75,2.54l0.89,2.51c0.26,1.34 1.16,0.89 2.03,0.98c0.87,0.09 1.78,0.02 2.68,0.02c0.88,0 1.78,0 2.64,0.06c0.89,0.06 1.71,-0.1 1.98,-0.91c0.29,-0.84 0.49,-1.45 0.8,-2.44c0.31,-0.99 1.16,-3.67 1.45,-4.63l-2.38,7.31l2.47,-7.38" fill="#000000" fill-opacity="0" id="svg_1" stroke="#ffffff"/>
   <circle cx="9.84" cy="19.19" fill="#000000" fill-opacity="0" id="svg_2" r="1.13" stroke="#ffffff"/>
   <circle cx="15.72" cy="19.31" fill="#000000" fill-opacity="0" id="svg_3" r="1.13" stroke="#ffffff"/>
  </g>
 </g>
</svg>