<svg width="28" height="20" xmlns="http://www.w3.org/2000/svg" xmlns:svg="http://www.w3.org/2000/svg">
 <defs>
  <linearGradient id="paint0_linear_1310_7981" x1="0.5" x2="0.5" y1="0" y2="1">
   <stop stop-color="white"/>
   <stop offset="1" stop-color="#F0F0F0"/>
  </linearGradient>
  <linearGradient id="paint1_linear_1310_7981" x1="0.5" x2="0.5" y1="0" y2="1">
   <stop stop-color="#D02F44"/>
   <stop offset="1" stop-color="#B12537"/>
  </linearGradient>
  <linearGradient id="paint2_linear_1310_7981" x1="0.5" x2="0.5" y1="0" y2="1">
   <stop stop-color="#46467F"/>
   <stop offset="1" stop-color="#3C3C6D"/>
  </linearGradient>
  <linearGradient id="paint3_linear_1310_7981" x1="0.5" x2="0.5" y1="0" y2="1">
   <stop stop-color="white"/>
   <stop offset="1" stop-color="#F0F0F0"/>
  </linearGradient>
  <clipPath id="clip0_1310_7981">
   <rect fill="white" height="20" id="svg_1" rx="2" width="28"/>
  </clipPath>
 </defs>
 <g class="layer">
  <title>Layer 1</title>
  <g clip-path="url(#clip0_1310_7981)" id="svg_2">
   <path d="m28,0.12l-28,0l0,20l28,0l0,-20z" fill="url(#paint0_linear_1310_7981)" id="svg_3"/>
   <path clip-rule="evenodd" d="m0,0.12l28,0l0,1.33l-28,0l0,-1.33zm0,2.67l28,0l0,1.33l-28,0l0,-1.33zm0,2.66l28,0l0,1.34l-28,0l0,-1.34zm0,2.67l28,0l0,1.33l-28,0l0,-1.33zm0,2.67l28,0l0,1.33l-28,0l0,-1.33zm0,2.66l28,0l0,1.34l-28,0l0,-1.34zm0,2.67l28,0l0,1.33l-28,0l0,-1.33zm0,2.67l28,0l0,1.33l-28,0l0,-1.33z" fill="url(#paint1_linear_1310_7981)" fill-rule="evenodd" id="svg_4"/>
   <path d="m12,0.12l-12,0l0,9.33l12,0l0,-9.33z" fill="url(#paint2_linear_1310_7981)" id="svg_5"/>
   <path clip-rule="evenodd" d="m2,2.79c-0.37,0 -0.67,-0.3 -0.67,-0.67c0,-0.37 0.3,-0.67 0.67,-0.67c0.37,0 0.67,0.3 0.67,0.67c0,0.37 -0.3,0.67 -0.67,0.67zm2.67,0c-0.37,0 -0.67,-0.3 -0.67,-0.67c0,-0.37 0.3,-0.67 0.67,-0.67c0.36,0 0.66,0.3 0.66,0.67c0,0.37 -0.3,0.67 -0.66,0.67zm2.66,0c-0.36,0 -0.66,-0.3 -0.66,-0.67c0,-0.37 0.3,-0.67 0.66,-0.67c0.37,0 0.67,0.3 0.67,0.67c0,0.37 -0.3,0.67 -0.67,0.67zm2.67,0c-0.37,0 -0.67,-0.3 -0.67,-0.67c0,-0.37 0.3,-0.67 0.67,-0.67c0.37,0 0.67,0.3 0.67,0.67c0,0.37 -0.3,0.67 -0.67,0.67zm-6.67,1.33c-0.36,0 -0.66,-0.3 -0.66,-0.67c0,-0.36 0.3,-0.66 0.66,-0.66c0.37,0 0.67,0.3 0.67,0.66c0,0.37 -0.3,0.67 -0.67,0.67zm2.67,0c-0.37,0 -0.67,-0.3 -0.67,-0.67c0,-0.36 0.3,-0.66 0.67,-0.66c0.37,0 0.67,0.3 0.67,0.66c0,0.37 -0.3,0.67 -0.67,0.67zm2.67,0c-0.37,0 -0.67,-0.3 -0.67,-0.67c0,-0.36 0.3,-0.66 0.67,-0.66c0.36,0 0.66,0.3 0.66,0.66c0,0.37 -0.3,0.67 -0.66,0.67zm1.33,1.33c-0.37,0 -0.67,-0.3 -0.67,-0.66c0,-0.37 0.3,-0.67 0.67,-0.67c0.37,0 0.67,0.3 0.67,0.67c0,0.36 -0.3,0.66 -0.67,0.66zm-2.67,0c-0.36,0 -0.66,-0.3 -0.66,-0.66c0,-0.37 0.3,-0.67 0.66,-0.67c0.37,0 0.67,0.3 0.67,0.67c0,0.36 -0.3,0.66 -0.67,0.66zm-2.66,0c-0.37,0 -0.67,-0.3 -0.67,-0.66c0,-0.37 0.3,-0.67 0.67,-0.67c0.36,0 0.66,0.3 0.66,0.67c0,0.36 -0.3,0.66 -0.66,0.66zm-2.67,0c-0.37,0 -0.67,-0.3 -0.67,-0.66c0,-0.37 0.3,-0.67 0.67,-0.67c0.37,0 0.67,0.3 0.67,0.67c0,0.36 -0.3,0.66 -0.67,0.66zm1.33,1.34c-0.36,0 -0.66,-0.3 -0.66,-0.67c0,-0.37 0.3,-0.67 0.66,-0.67c0.37,0 0.67,0.3 0.67,0.67c0,0.37 -0.3,0.67 -0.67,0.67zm2.67,0c-0.37,0 -0.67,-0.3 -0.67,-0.67c0,-0.37 0.3,-0.67 0.67,-0.67c0.37,0 0.67,0.3 0.67,0.67c0,0.37 -0.3,0.67 -0.67,0.67zm2.67,0c-0.37,0 -0.67,-0.3 -0.67,-0.67c0,-0.37 0.3,-0.67 0.67,-0.67c0.36,0 0.66,0.3 0.66,0.67c0,0.37 -0.3,0.67 -0.66,0.67zm1.33,1.33c-0.37,0 -0.67,-0.3 -0.67,-0.67c0,-0.36 0.3,-0.66 0.67,-0.66c0.37,0 0.67,0.3 0.67,0.66c0,0.37 -0.3,0.67 -0.67,0.67zm-2.67,0c-0.36,0 -0.66,-0.3 -0.66,-0.67c0,-0.36 0.3,-0.66 0.66,-0.66c0.37,0 0.67,0.3 0.67,0.66c0,0.37 -0.3,0.67 -0.67,0.67zm-2.66,0c-0.37,0 -0.67,-0.3 -0.67,-0.67c0,-0.36 0.3,-0.66 0.67,-0.66c0.36,0 0.66,0.3 0.66,0.66c0,0.37 -0.3,0.67 -0.66,0.67zm-2.67,0c-0.37,0 -0.67,-0.3 -0.67,-0.67c0,-0.36 0.3,-0.66 0.67,-0.66c0.37,0 0.67,0.3 0.67,0.66c0,0.37 -0.3,0.67 -0.67,0.67z" fill="url(#paint3_linear_1310_7981)" fill-rule="evenodd" id="svg_6"/>
  </g>
 </g>
</svg>