<svg width="40" height="40" xmlns="http://www.w3.org/2000/svg" xmlns:svg="http://www.w3.org/2000/svg" xmlns:xlink="http://www.w3.org/1999/xlink">
 <!-- Created with SVG-edit - https://github.com/SVG-Edit/svgedit-->
 <title>white</title>
 <defs>
  <symbol height="800px" id="svg_2" viewBox="0 0 466.337 466.337" width="800px" xmlns="http://www.w3.org/2000/svg" xmlns:xlink="http://www.w3.org/1999/xlink">
   <g id="svg_1">
    <path d="m233.17,0c-128.57,0 -233.17,104.6 -233.17,233.17c0,128.56 104.6,233.17 233.17,233.17c128.56,0 233.17,-104.61 233.17,-233.17c0,-128.57 -104.61,-233.17 -233.17,-233.17zm-9.19,441.87c-22.32,0 -46.4,-41.38 -59.04,-107.81l118.07,0c-12.64,66.43 -36.69,107.81 -59.03,107.81zm-62.87,-131.73c-2.73,-19.99 -4.43,-41.78 -4.88,-65.01l135.51,0c-0.44,23.23 -2.15,45.02 -4.87,65.01l-125.76,0zm-136.59,-65.01l107.7,0c0.45,21.88 2.09,43.86 4.89,65.01l-98.34,0c-8.08,-20.31 -12.95,-42.17 -14.25,-65.01zm199.46,-220.67c21.99,0 45.69,40.14 58.49,104.88l-116.97,0c12.79,-64.74 36.5,-104.88 58.48,-104.88zm62.48,128.79c2.98,20.78 4.81,43.59 5.28,67.96l-135.52,0c0.47,-24.37 2.3,-47.17 5.27,-67.96l124.97,0zm-154.23,67.96l-107.71,0c1.36,-23.92 6.57,-46.83 15.33,-67.96l97.66,0c-3.05,22.07 -4.83,45.06 -5.28,67.96zm183.52,23.92l126.06,0c-1.29,22.84 -6.18,44.7 -14.24,65.01l-116.71,0c2.79,-21.15 4.45,-43.13 4.89,-65.01zm0,-23.92c-0.47,-22.9 -2.25,-45.89 -5.29,-67.96l116.02,0c8.77,21.13 13.98,44.03 15.33,67.96l-126.06,0zm98.85,-91.88l-107.98,0c-7.9,-42.07 -20.73,-78.84 -38.2,-102.22c62.53,10.69 115.64,49.09 146.18,102.22zm-238.53,-97.29c-15.7,23.46 -27.34,58.1 -34.7,97.3l-89.63,0c26.92,-46.84 71.32,-82.24 124.33,-97.3zm-126.11,302.02l90.9,0c7.31,40.4 19.13,76.2 35.21,100.26c-54.13,-15.42 -99.4,-51.94 -126.11,-100.26zm218.45,105.16c17.87,-23.94 30.87,-61.89 38.7,-105.16l109.27,0c-30.23,54.68 -84.26,94.28 -147.97,105.16z" id="svg_4"/>
   </g>
  </symbol>
 </defs>
 <g class="layer">
  <title>Layer 1</title>
  <use fill="#ffffff" id="svg_3" transform="matrix(0.0410236 0 0 0.0410236 -1.60337 -1.57619)" x="68.7" xlink:href="#svg_2" y="205.15"/>
 </g>
</svg>